<svg width="369" height="297" viewBox="0 0 369 297" fill="none" xmlns="http://www.w3.org/2000/svg">
<path d="M0.5 187L20 177.761L11 158L49.5 139.5L41 120.5L60 111.5L51 92L90 73.5L81 54.5L197.5 0L206.5 18.5L226.5 9.5L235.5 29L254.5 20L264 39.5L283 30.5L311 88.5L330.5 79.5L339.5 99L359 90L368.5 109.5L348.5 119L367 157.5L347 167L356 186L259 232L268 251L171 297L161.5 277.5L123 295.5L113.5 276.5L94.5 285.5L76 246.5L56.5 255.5L47.5 236L28 245L0.5 187Z" fill="#4C2A3A"/>
<path d="M176.5 56L167 37.5L206.5 18.5L216.5 38L235.5 29L244.5 48.5L264 39.5L291.5 98L233 125.5L223.5 106L204 114.5L186 76.5L167 85.5L157.5 65.5L176.5 56Z" fill="#ECFDDE"/>
<path d="M225.5 58L244.5 48.5L262.5 87L243.5 96L225.5 58Z" fill="#4C2A3A"/>
<path d="M250 212.5L241 193L338 147L347 167L250 212.5Z" fill="#EE5140"/>
<path d="M212.5 182.5L232 173.5L241 193L222 202.5L212.5 182.5Z" fill="#EE5140"/>
<path d="M232 173.5L222.5 154L339.5 99L348.5 119L232 173.5Z" fill="#EE5140"/>
<path d="M113.5 276.5L104 257L143 239L134.5 219L154 210.5L193 192L202 211.5L222 202.5L231 221L250 212.5L259 232L161.5 277.5L152.5 258.5L113.5 276.5Z" fill="#E48116"/>
<path d="M154 210.5L144.5 190.5L164 181L146 142L126 151.5L117 132L98 141L88 122L108 112.5L99 93L138 74.5L165.5 133L185 124L194.5 143L213.5 134.5L222.5 154L203.5 163.5L212.5 182.5L154 210.5Z" fill="#D4BF27"/>
<path d="M76 246.5L66.5 227L125 199.5L134.5 219L76 246.5Z" fill="#D4BF27"/>
<path d="M69 131L60 111.5L99 93L108 112.5L69 131Z" fill="#E3EBBD"/>
<path d="M99 93L90 73.5L148.5 46L157.5 65.5L99 93Z" fill="#E3EBBD"/>
<path d="M38 216.5L20 178L98 141L107 160L126 151.5L135.5 170.5L115.5 180L125 199.5L66.5 227L57.5 207L38 216.5Z" fill="#E3EBBD"/>
<path d="M135.5 170.5L115.5 180L125 199.5L144.5 190.5L135.5 170.5Z" fill="#D4BF27"/>
<path d="M57.5 207L38 216.5L47.5 236L66.5 227L57.5 207Z" fill="#D4BF27"/>
<path d="M167 85.5L186 76.5L204 114.5L185 124L167 85.5Z" fill="#CAC2C2"/>
<path d="M213.5 134.5L204 114.5L223.5 106L233 125.5L213.5 134.5Z" fill="#CAC2C2"/>
</svg>
