<svg width="125" height="53" viewBox="0 0 125 53" fill="none" xmlns="http://www.w3.org/2000/svg">
<path d="M1.78571 45.9333H0V7.06667H1.78571V5.3H3.57143V3.53333H5.35714V1.76667H7.14286V0H117.857V1.76667H119.643V3.53333H121.429V5.3H123.214V7.06667H125V45.9333H123.214V47.7H121.429V49.4667H119.643V51.2333H117.857V53H7.14286V51.2333H5.35714V49.4667H3.57143V47.7H1.78571V45.9333Z" fill="black"/>
<path d="M5.35716 44.1666H3.57144V8.83329H5.35716V7.06663H7.14287V5.29996H8.92858V3.53329H116.071V5.29996H117.857V7.06663H119.643V8.83329H121.429V44.1666H119.643V45.9333H117.857V47.7H116.071V49.4666H8.92858V47.7H7.14287V45.9333H5.35716V44.1666Z" fill="#0099CC"/>
<path d="M75.0001 45.9334V49.4667H116.071V47.7H117.857V45.9334H119.643V44.1667H121.429V8.83335H119.643V7.06668H114.286V10.6H110.714V14.1333H107.143V17.6667H103.571V21.2H100V24.7334H96.4286V28.2667H92.8572V31.7959H89.2858V35.3334H85.7144V38.8708H82.1429V42.4H78.5715V45.9334H75.0001Z" fill="#007CA6"/>
</svg>
