<svg width="164" height="70" viewBox="0 0 164 70" fill="none" xmlns="http://www.w3.org/2000/svg">
<path d="M2.34286 60.6667H0V9.33333H2.34286V7H4.68571V4.66667H7.02857V2.33333H9.37143V0H154.629V2.33333H156.971V4.66667H159.314V7H161.657V9.33333H164V60.6667H161.657V63H159.314V65.3333H156.971V67.6667H154.629V70H9.37143V67.6667H7.02857V65.3333H4.68571V63H2.34286V60.6667Z" fill="black"/>
<path d="M7.02859 58.3333H4.68573V11.6667H7.02859V9.33332H9.37144V6.99999H11.7143V4.66666H152.286V6.99999H154.629V9.33332H156.971V11.6667H159.314V58.3333H156.971V60.6667H154.629V63H152.286V65.3333H11.7143V63H9.37144V60.6667H7.02859V58.3333Z" fill="#F1DBA3"/>
<path d="M98.4001 60.6667V65.3333H152.286V63H154.629V60.6667H156.972V58.3333H159.314V11.6667H156.972V9.33334H149.943V14H145.257V18.6667H140.572V23.3333H135.886V28H131.2V32.6667H126.514V37.3333H121.829V41.9946H117.143V46.6667H112.457V51.3388H107.772V56H103.086V60.6667H98.4001Z" fill="#FABB82"/>
</svg>
