<svg width="775" height="360" viewBox="0 0 775 360" fill="none" xmlns="http://www.w3.org/2000/svg">
<path d="M11.0714 312H0V48H11.0714V36H22.1429V24H33.2143V12H44.2857V0H730.714V12H741.786V24H752.857V36H763.929V48H775V312H763.929V324H752.857V336H741.786V348H730.714V360H44.2857V348H33.2143V336H22.1429V324H11.0714V312Z" fill="black"/>
<path d="M23.3636 308.346H12V50.6538H23.3636V37.7692H34.7273V24.8846H46.0909V12H727.909V24.8846H739.273V37.7692H750.636V50.6538H762V308.346H750.636V321.231H739.273V334.115H727.909V347H46.0909V334.115H34.7273V321.231H23.3636V308.346Z" fill="#DFD796"/>
</svg>
