<svg width="210" height="1195" viewBox="0 0 210 1195" fill="none" xmlns="http://www.w3.org/2000/svg">
<path d="M9 1195V101H17V1195H9Z" fill="black"/>
<path d="M202 101H194V1195H202V101Z" fill="black"/>
<path d="M17 109V101H194V1195H168V109H160V1195H143V109H17Z" fill="#1A8200"/>
<path d="M168 109H160V1195H168V109Z" fill="#00A306"/>
<path d="M76 1195V109H143V1195H76Z" fill="#00A306"/>
<path d="M0 101V0H210V101H0Z" fill="black"/>
<path d="M17 84H8V8H17V84Z" fill="#00A306"/>
<path d="M152 17V8H168V17H152Z" fill="#00A306"/>
<path d="M202 8H177V17H202V8Z" fill="#00A306"/>
<path d="M168 17V8H177V17H168Z" fill="#A1DE52"/>
<path d="M177 17H168V84H177V17Z" fill="#00A306"/>
<path d="M42 17H26V84H42V17Z" fill="#79D938"/>
<path d="M8 93V84H152V17H168V84H177V17H202V93H8Z" fill="#1A8200"/>
<path d="M51 84V17H152V84H51Z" fill="#00A306"/>
<path d="M26 84H17V8H152V17H51V84H42V17H26V84Z" fill="#D6FF75"/>
<path d="M67 109H76V1195H67V109Z" fill="#D6FF75"/>
<path d="M42 109H67V1195H42V109Z" fill="#79D938"/>
<path d="M42 109H25V1195H42V109Z" fill="#D6FF75"/>
<path d="M17 109H25V1195H17V109Z" fill="#00A306"/>
</svg>
