<svg id="svg" version="1.1" xmlns="http://www.w3.org/2000/svg" xmlns:xlink="http://www.w3.org/1999/xlink" width="400" height="871.4893617021277" viewBox="0, 0, 400,871.4893617021277"><g id="svgg"><path id="path0" d="M12.800 128.400 L 12.800 215.200 19.600 215.200 L 26.400 215.200 26.400 543.200 L 26.400 871.200 34.400 871.200 L 42.400 871.200 42.453 550.700 C 42.482 374.425,42.617 226.690,42.753 222.400 L 43.000 214.600 192.535 214.499 C 274.779 214.444,342.325 214.542,342.637 214.717 C 343.127 214.991,343.204 260.157,343.201 543.117 L 343.198 871.200 350.799 871.200 L 358.400 871.200 358.400 543.200 L 358.400 215.200 366.000 215.200 L 373.600 215.200 373.600 128.400 L 373.600 41.600 193.200 41.600 L 12.800 41.600 12.800 128.400 M356.899 56.739 C 357.346 57.186,357.389 199.371,356.942 200.093 C 356.838 200.262,283.049 200.400,192.966 200.400 L 29.180 200.400 28.707 199.300 C 27.875 197.366,27.745 59.253,28.573 57.651 L 29.211 56.419 36.105 56.272 C 54.832 55.874,356.473 56.313,356.899 56.739 " stroke="none" fill="#040404" fill-rule="evenodd"></path><path id="path1" d="M43.467 58.267 C 43.320 58.413,43.200 87.033,43.200 121.867 L 43.200 185.200 49.900 185.194 C 53.585 185.191,56.824 185.045,57.099 184.871 C 57.492 184.621,57.619 172.670,57.699 128.177 L 57.800 71.800 71.491 71.695 L 85.182 71.590 85.403 72.495 C 85.525 72.993,85.574 98.473,85.512 129.118 C 85.401 184.550,85.404 184.836,86.200 185.032 C 86.640 185.140,89.880 185.177,93.400 185.114 L 99.800 185.000 100.000 128.200 L 100.200 71.400 185.600 71.198 C 232.570 71.086,271.045 70.951,271.100 70.898 C 271.619 70.391,271.116 58.453,270.567 58.243 C 269.699 57.910,43.800 57.934,43.467 58.267 M57.852 229.700 C 57.719 230.195,57.608 374.735,57.605 550.900 L 57.600 871.200 71.800 871.200 L 86.000 871.200 86.000 551.019 C 86.000 308.893,85.887 230.589,85.536 229.819 L 85.072 228.800 71.582 228.800 L 58.093 228.800 57.852 229.700 M128.800 229.713 C 128.268 230.500,128.211 266.738,128.301 550.900 L 128.402 871.200 135.401 871.200 L 142.400 871.200 142.400 550.000 L 142.400 228.800 135.900 228.813 C 129.640 228.825,129.378 228.858,128.800 229.713 " stroke="none" fill="#c6f56b" fill-rule="evenodd"></path><path id="path2" d="M43.029 57.429 C 42.180 58.277,42.053 184.843,42.900 185.475 C 43.620 186.013,99.843 185.917,100.383 185.377 C 100.664 185.096,100.830 166.769,100.899 128.381 L 101.000 71.800 186.600 71.598 C 233.680 71.486,272.245 71.351,272.300 71.298 C 272.551 71.053,272.354 58.550,272.094 58.160 C 271.183 56.796,271.525 56.800,156.855 56.800 C 54.481 56.800,43.597 56.860,43.029 57.429 M300.800 57.698 C 299.619 58.318,298.978 70.558,300.089 71.264 C 300.941 71.804,313.766 71.674,314.320 71.120 C 314.907 70.533,314.986 58.914,314.409 58.000 C 313.883 57.167,302.303 56.910,300.800 57.698 M270.567 58.243 C 271.116 58.453,271.619 70.391,271.100 70.898 C 271.045 70.951,232.570 71.086,185.600 71.198 L 100.200 71.400 100.000 128.200 L 99.800 185.000 93.400 185.114 C 89.880 185.177,86.640 185.140,86.200 185.032 C 85.404 184.836,85.401 184.550,85.512 129.118 C 85.574 98.473,85.525 72.993,85.403 72.495 L 85.182 71.590 71.491 71.695 L 57.800 71.800 57.699 128.177 C 57.619 172.670,57.492 184.621,57.099 184.871 C 56.824 185.045,53.585 185.191,49.900 185.194 L 43.200 185.200 43.200 121.867 C 43.200 87.033,43.320 58.413,43.467 58.267 C 43.800 57.934,269.699 57.910,270.567 58.243 M57.300 228.440 L 56.400 228.774 56.400 549.987 C 56.400 835.243,56.467 871.200,57.000 871.200 C 57.533 871.200,57.601 835.342,57.605 550.900 C 57.608 374.735,57.719 230.195,57.852 229.700 L 58.093 228.800 71.582 228.800 L 85.072 228.800 85.536 229.819 C 85.887 230.589,86.000 308.893,86.000 551.019 L 86.000 871.200 107.201 871.200 L 128.402 871.200 128.399 550.799 C 128.396 295.613,128.497 230.235,128.894 229.599 C 129.359 228.854,129.830 228.800,135.896 228.800 L 142.400 228.800 142.400 550.000 C 142.400 763.867,142.534 871.200,142.800 871.200 C 143.391 871.200,143.352 228.941,142.761 228.576 C 142.119 228.179,58.362 228.046,57.300 228.440 " stroke="none" fill="#7bdb3b" fill-rule="evenodd"></path><path id="path3" d="M42.244 57.890 C 42.084 58.049,39.174 58.122,35.777 58.052 L 29.600 57.924 29.600 121.790 L 29.600 185.657 35.928 185.560 C 39.408 185.507,42.513 185.619,42.828 185.809 C 43.301 186.094,43.313 186.046,42.898 185.533 C 42.498 185.039,42.416 171.873,42.498 121.256 C 42.554 86.245,42.585 57.600,42.567 57.600 C 42.548 57.600,42.403 57.730,42.244 57.890 M272.319 64.615 C 272.384 68.237,272.384 71.244,272.319 71.298 C 272.253 71.351,233.680 71.486,186.600 71.598 L 101.000 71.800 100.901 128.400 C 100.807 181.786,100.762 185.031,100.101 185.554 C 99.441 186.075,99.444 186.093,100.147 185.848 C 100.558 185.706,139.010 185.593,185.596 185.597 C 256.761 185.604,270.370 185.518,270.752 185.058 C 271.087 184.655,271.179 169.824,271.103 128.483 L 271.000 72.454 272.062 71.827 C 273.545 70.951,298.835 70.878,299.557 71.748 C 299.891 72.151,300.009 87.131,300.003 128.556 L 299.995 184.818 301.023 185.209 C 302.358 185.716,312.040 185.717,313.374 185.210 L 314.400 184.820 314.400 128.424 C 314.400 73.076,314.414 72.020,315.174 71.614 C 315.678 71.344,323.058 71.200,336.374 71.200 L 356.800 71.200 356.800 64.843 L 356.800 58.487 355.793 58.234 C 355.239 58.095,345.744 57.994,334.693 58.010 L 314.600 58.039 314.720 64.255 C 314.873 72.213,315.496 71.601,307.251 71.594 C 298.816 71.586,299.536 72.263,299.680 64.480 L 299.800 58.031 286.000 58.031 L 272.200 58.031 272.319 64.615 M64.326 185.900 C 68.355 185.965,74.835 185.965,78.726 185.899 C 82.617 185.834,79.320 185.780,71.400 185.781 C 63.480 185.781,60.297 185.834,64.326 185.900 M56.694 228.239 C 56.563 228.371,54.026 228.454,51.056 228.424 C 48.087 228.395,45.195 228.486,44.629 228.628 L 43.600 228.887 43.600 550.043 L 43.600 871.200 50.000 871.200 L 56.400 871.200 56.400 549.987 L 56.400 228.774 57.300 228.412 C 57.877 228.180,57.973 228.042,57.567 228.025 C 57.218 228.011,56.826 228.108,56.694 228.239 M96.300 228.300 C 102.295 228.362,112.105 228.362,118.100 228.300 C 124.095 228.238,119.190 228.187,107.200 228.187 C 95.210 228.187,90.305 228.238,96.300 228.300 M142.720 228.480 C 143.093 228.853,143.200 300.853,143.200 550.080 L 143.200 871.200 200.200 871.200 L 257.200 871.200 257.160 550.900 C 257.138 374.735,256.995 230.150,256.842 229.600 L 256.564 228.600 200.027 228.512 C 168.932 228.464,143.396 228.329,143.279 228.212 C 143.162 228.095,142.881 228.000,142.653 228.000 C 142.406 228.000,142.433 228.193,142.720 228.480 M286.243 229.033 C 286.109 229.381,286.000 374.011,286.000 550.433 L 286.000 871.200 292.800 871.200 L 299.600 871.200 299.600 550.280 C 299.600 301.209,299.493 229.253,299.120 228.880 C 298.318 228.078,286.556 228.217,286.243 229.033 " stroke="none" fill="#04a404" fill-rule="evenodd"></path><path id="path4" d="M36.105 56.272 L 29.211 56.419 28.573 57.651 C 27.745 59.253,27.875 197.366,28.707 199.300 L 29.180 200.400 192.966 200.400 C 283.049 200.400,356.838 200.262,356.942 200.093 C 357.389 199.371,357.346 57.186,356.899 56.739 C 356.473 56.313,54.832 55.874,36.105 56.272 M271.233 57.417 C 272.684 58.168,299.043 58.344,300.959 57.616 C 302.371 57.079,311.782 57.076,313.603 57.611 C 314.482 57.870,322.381 58.015,334.891 58.001 C 345.832 57.990,355.237 58.094,355.791 58.234 L 356.800 58.487 356.800 64.843 L 356.800 71.200 336.374 71.200 C 323.058 71.200,315.678 71.344,315.174 71.614 C 314.414 72.020,314.400 73.076,314.400 128.424 L 314.400 184.820 313.374 185.210 C 312.040 185.717,302.358 185.716,301.023 185.209 L 299.995 184.818 300.003 128.556 C 300.009 87.131,299.891 72.151,299.557 71.748 C 298.835 70.878,273.545 70.951,272.062 71.827 L 271.000 72.454 271.103 128.483 C 271.179 169.824,271.087 184.655,270.752 185.058 C 270.286 185.619,103.520 186.069,35.900 185.692 L 29.600 185.657 29.600 121.790 L 29.600 57.924 35.706 58.050 C 40.969 58.159,41.949 58.081,42.795 57.488 C 44.230 56.483,269.291 56.413,271.233 57.417 M42.924 214.900 C 42.248 215.944,42.316 871.200,42.992 871.200 C 43.535 871.200,43.600 837.128,43.600 550.043 L 43.600 228.887 44.638 228.626 C 45.973 228.291,47.622 228.276,99.198 228.120 C 123.066 228.048,142.850 228.087,143.162 228.207 C 143.474 228.326,169.117 228.464,200.146 228.512 L 256.564 228.600 256.842 229.600 C 256.995 230.150,257.138 374.735,257.160 550.900 L 257.200 871.200 271.600 871.200 L 286.000 871.200 286.000 550.433 C 286.000 374.011,286.109 229.381,286.243 229.033 C 286.556 228.217,298.318 228.078,299.120 228.880 C 299.493 229.253,299.600 301.209,299.600 550.280 L 299.600 871.200 321.399 871.200 L 343.198 871.200 343.299 543.300 C 343.387 258.197,343.325 215.335,342.824 214.900 C 341.976 214.164,43.400 214.164,42.924 214.900 " stroke="none" fill="#198604" fill-rule="evenodd"></path></g></svg>